# xmcd
#
# Track frame offsets: 
#        150
#        20957
#        42560
#        60860
#        75070
#        98502
#        109387
#        126995
#        149595
#        164695
#        177485
#        199940
#
# Disc length: 2823 seconds
#
# Revision: 7
# Processed by: cddbd v1.5.2PL0 Copyright (c) Steve Scherf et al.
# Submitted via: ExactAudioCopyFreeDBPlugin 1.0
#
DISCID=aa0b050c
DTITLE=Cheryl Bentyne - Cheryl Bentyne sings "Waltz for Debby"
DYEAR=2004
DGENRE=Jazz
TTITLE0=Last Night When We Were Young
TTITLE1=Blue Moon
TTITLE2=The Boy Next Door
TTITLE3=I Must Have That Man
TTITLE4=But Beautiful
TTITLE5=Thou Swell
TTITLE6=When Your Lover Has Gone
TTITLE7=Easy Living
TTITLE8=In A Sentimental Mood
TTITLE9=Stompin' At The Savoy
TTITLE10=I Get Along Without You Very Well
TTITLE11=Waltz for Debby
EXTD=YEAR: 2004
EXTT0=
EXTT1=
EXTT2=
EXTT3=
EXTT4=
EXTT5=
EXTT6=
EXTT7=
EXTT8=
EXTT9=
EXTT10=
EXTT11=
PLAYORDER=
